<svg id="Layer_1" data-name="Layer 1" xmlns="http://www.w3.org/2000/svg" viewBox="0 0 987.14 692.43"><defs><style>.cls-1{fill:#0d0d0d;}</style></defs><path class="cls-1" d="M323.72,115.8l32.11,142.75q10.95,48.65-10,78.93t-70.57,41.43A198,198,0,0,1,225.61,384q-23.87-.72-42.19-8.45L196,327.67q12.6,6.31,30,7.64a111.88,111.88,0,0,0,33.19-2.21q24.17-5.44,33.05-18.61t4.18-34.12l-1.31-5.8q-13.08,24.62-47.24,32.3a92,92,0,0,1-45.21-.84,81.71,81.71,0,0,1-37.93-22.61q-15.9-16.56-21.56-41.7-5.58-24.81,1.7-46.59a81.81,81.81,0,0,1,24.59-36.68A92,92,0,0,1,210,138.34q37.36-8.42,60.21,11.84l-4.78-21.26Zm-47.31,123q8.55-12.4,5-28.2T265,187.4q-12.84-7.43-29.6-3.67t-25.34,16q-8.59,12.26-5,28t16.75,23.32q13.2,7.53,29.64,3.83T276.41,238.83Z"/><path class="cls-1" d="M544.84,119q23.45,20.31,23.45,62.26v99.41H509.83V257.59q-13.54,26.1-52.84,26.1-20.81,0-36-7.27t-23-19.65a52,52,0,0,1-7.76-28.24q0-25.44,19.49-39.47t60.11-14h35.67q-1.67-28.4-38-28.4a87.25,87.25,0,0,0-26.09,4.13A69.48,69.48,0,0,0,419,162.14l-21.14-42.61q14.86-9.9,36.17-15.35a171.63,171.63,0,0,1,42.77-5.45Q521.4,98.73,544.84,119ZM493.65,238.77a29.47,29.47,0,0,0,11.89-15.53V207.72H478.45q-27.4,0-27.41,18.17a16,16,0,0,0,6.28,13.21q6.27,5,17.17,5A34.8,34.8,0,0,0,493.65,238.77Z"/><path class="cls-1" d="M206.66,581.81a89.74,89.74,0,0,1-36.16-33q-13-21.13-13.05-47.89,0-26.43,13.05-47.56a88.8,88.8,0,0,1,36-32.87q23-11.71,52-11.72t52.18,11.72q23.13,11.73,36,32.7t12.88,47.73q0,26.76-12.88,47.89a88.63,88.63,0,0,1-36,33q-23.11,11.9-52.18,11.89Q229.78,593.7,206.66,581.81Zm78.94-49.38q10.57-11.38,10.57-31.54,0-19.81-10.57-31.05t-27.08-11.23q-16.51,0-27.09,11.23t-10.56,31.05q0,20.15,10.56,31.54t27.09,11.4Q275,543.83,285.6,532.43Z"/><path class="cls-1" d="M490.87,513.39l-20.36,16.79-4.6,43.69-62.41-6.56,25.62-243.73,62.41,6.56L478.1,457.92l70.25-55.38,73.91,7.76-81.92,68.44L609.79,589l-75.55-7.94Z"/><path class="cls-1" d="M775.82,315.79l-.51-95.3-46.24,77.58H706.46l-46-75v92.73h-47V136h41.87l63.19,103.78L780.19,136h41.87l.51,179.81Z"/><path class="cls-1" d="M834.88,498.23l11.51,43.63L686.11,584.14,633.46,384.5,790,343.2l11.51,43.64L700.86,413.39,709.74,447l88.7-23.39,11.13,42.21-88.7,23.39,9.63,36.51Z"/></svg>